<?xml version="1.0" encoding="UTF-8" standalone="no"?>
<svg
   id="vector"
   width="26"
   height="26"
   viewBox="0 0 26 26"
   version="1.1"
   xmlns="http://www.w3.org/2000/svg"
   xmlns:svg="http://www.w3.org/2000/svg">
  <defs
     id="defs44" />
  <path
     id="path2327"
     style="stroke-width:0.025;fill:#828282;fill-opacity:1"
     d="m 13,4.25 c -0.25,0 -0.491277,0.0625 -0.724609,0.1875 C 12.042057,4.5624999 11.849219,4.7500003 11.699219,5 L 3.3007815,19.5 c -0.283333,0.5 -0.283333,1 0,1.5 0.283333,0.5 0.7154955,0.75 1.2988282,0.75 H 21.400391 c 0.583332,0 1.015494,-0.25 1.298828,-0.75 0.283332,-0.5 0.283332,-1 0,-1.5 L 14.300781,5 C 14.150781,4.7500003 13.957942,4.5624999 13.724609,4.4375 13.491276,4.3125001 13.25,4.25 13,4.25 Z m 0,2.5 3.998047,6.90625 c -0.123262,0.05593 -0.245879,0.111236 -0.369141,0.164062 -0.349999,0.15 -0.766667,0.22461 -1.25,0.22461 -0.483332,0 -0.9,-0.07461 -1.25,-0.22461 -0.349999,-0.149999 -0.70078,-0.313281 -1.050781,-0.488281 -0.35,-0.175 -0.728386,-0.332942 -1.136719,-0.474609 -0.408332,-0.14167 -0.929168,-0.212891 -1.5625,-0.212891 -0.292698,0 -0.5636878,0.01708 -0.8164057,0.04492 z m -2.621094,7.845703 c 0.483332,0 0.891277,0.07122 1.22461,0.212891 0.333332,0.141667 0.670052,0.299609 1.011718,0.474609 0.341667,0.175 0.72539,0.336328 1.150391,0.486328 0.425,0.15 0.963282,0.226563 1.613281,0.226563 0.65,0 1.186329,-0.07656 1.611328,-0.226563 0.362072,-0.12779 0.692552,-0.264221 0.994141,-0.410156 L 20.525391,19.75 H 5.4746097 l 2.5039062,-4.324219 c 0.1640707,-0.08522 0.3147977,-0.179275 0.4492188,-0.28125 0.4833328,-0.366666 1.134506,-0.548828 1.9511713,-0.548828 z" />
</svg>
