<?xml version="1.0" encoding="UTF-8" standalone="no"?>
<svg
   id="vector"
   width="26"
   height="26"
   viewBox="0 0 400 400"
   version="1.1"
   xmlns="http://www.w3.org/2000/svg"
   xmlns:svg="http://www.w3.org/2000/svg">
  <defs
     id="defs4468" />
  <path
     style="fill:none;stroke:#828282;stroke-width:30.7692;stroke-linecap:square;stroke-linejoin:miter;stroke-dasharray:none;stroke-opacity:1"
     d="m 33.459965,323.401 38.981881,-34.92699 a 15.476472,15.476472 178.17003 0 1 19.898323,-0.63575 l 53.322661,41.96046 a 15.286976,15.286976 177.82204 0 0 19.79223,-0.75272 l 65.46087,-60.10102 a 16.344833,16.344833 175.94157 0 1 20.29755,-1.44015 l 115.03002,78.87732 a 6.8303517,6.8303517 152.15681 0 0 10.69308,-5.64813 L 376.27732,39.108938 A 13.028445,13.028445 44.937385 0 0 363.24891,26.108969 l -326.471096,1e-6 a 13,13 135 0 0 -13,13 l -1e-6,279.96705 a 5.8070532,5.8070532 24.070144 0 0 9.682152,4.32498 z"
     id="path6771" />
</svg>
