<?xml version="1.0" encoding="UTF-8" standalone="no"?>
<svg
   id="vector"
   width="26"
   height="26"
   viewBox="0 0 26 26"
   version="1.1"
   xmlns="http://www.w3.org/2000/svg"
   xmlns:svg="http://www.w3.org/2000/svg">
  <defs
     id="defs44" />
  <path
     id="path306"
     style="fill:#828282;stroke-width:0.025;fill-opacity:1"
     d="M 9.984375 3.4257812 C 9.2633839 3.4363114 8.5569474 3.5300904 7.8652344 3.7089844 C 6.7584942 3.9952147 5.723097 4.4899164 4.7597656 5.1894531 C 3.7964346 5.8889898 2.9976965 6.7764762 2.3632812 7.8535156 L 2.2871094 7.9824219 L 1.9863281 6.8183594 C 1.9155083 6.5445265 1.7632947 6.3449585 1.5292969 6.2167969 C 1.295299 6.0886352 1.0446707 6.0509625 0.77929688 6.1074219 C 0.50546408 6.1782418 0.29518908 6.3317339 0.1484375 6.5644531 C 0.0016858468 6.7971724 -0.035663609 7.0503859 0.03515625 7.3242188 L 0.94726562 10.849609 C 1.0180852 11.123442 1.1667159 11.327549 1.3964844 11.462891 C 1.6262527 11.598232 1.8785108 11.631367 2.1523438 11.560547 L 5.6777344 10.648438 C 5.9515674 10.577618 6.1547182 10.420865 6.2871094 10.179688 C 6.4195002 9.9385094 6.4516793 9.682036 6.3808594 9.4082031 C 6.3015802 9.1487309 6.1474135 8.9472097 5.921875 8.8046875 C 5.6963359 8.662165 5.4476612 8.6264457 5.1738281 8.6972656 L 4.0097656 8.9980469 L 4.0859375 8.8691406 C 5.0756254 7.188959 6.4995942 6.1079381 8.359375 5.6269531 C 10.219156 5.1459681 11.989741 5.4009371 13.669922 6.390625 C 15.350103 7.3803129 16.431125 8.804282 16.912109 10.664062 C 17.393095 12.523844 17.138126 14.294428 16.148438 15.974609 C 15.158749 17.654791 13.734781 18.733858 11.875 19.214844 C 11.600959 19.318614 11.314239 19.387453 11.029297 19.439453 L 1.7109375 19.439453 C 1.4276044 19.439453 1.1897133 19.534896 0.99804688 19.726562 C 0.80638037 19.918229 0.7109375 20.15612 0.7109375 20.439453 C 0.7109375 20.722786 0.80638041 20.960677 0.99804688 21.152344 C 1.1897133 21.344014 1.4276044 21.439453 1.7109375 21.439453 L 22.552734 21.439453 L 21.177734 22.814453 C 20.977735 23.014453 20.876953 23.252344 20.876953 23.527344 C 20.876953 23.802343 20.977735 24.038281 21.177734 24.238281 C 21.377734 24.421611 21.613672 24.513672 21.888672 24.513672 C 22.163672 24.513672 22.392839 24.421614 22.576172 24.238281 L 25.677734 21.138672 C 25.877734 20.938672 25.976562 20.70612 25.976562 20.439453 C 25.976562 20.172786 25.877734 19.938281 25.677734 19.738281 L 22.601562 16.638672 C 22.41823 16.438672 22.189062 16.343263 21.914062 16.351562 C 21.639063 16.359895 21.401172 16.455339 21.201172 16.638672 C 21.001172 16.838672 20.896972 17.073177 20.888672 17.339844 C 20.880339 17.60651 20.977735 17.839063 21.177734 18.039062 L 22.552734 19.439453 L 15.753906 19.439453 C 16.592752 18.775426 17.301323 17.958891 17.873047 16.988281 C 18.507462 15.911241 18.896235 14.783254 19.041016 13.601562 C 19.185796 12.419871 19.114356 11.27471 18.828125 10.167969 C 18.541894 9.061228 18.049146 8.025831 17.349609 7.0625 C 16.650073 6.099169 15.762587 5.3004309 14.685547 4.6660156 C 13.608507 4.0316004 12.478567 3.642828 11.296875 3.4980469 C 10.85374 3.443754 10.41697 3.4194632 9.984375 3.4257812 z " />
</svg>
